<?xml version="1.0" encoding="UTF-8"?>
<svg width="211px" height="32px" viewBox="0 0 211 32" version="1.1" xmlns="http://www.w3.org/2000/svg" xmlns:xlink="http://www.w3.org/1999/xlink">
    <!-- Generator: Sketch 51.2 (57519) - http://www.bohemiancoding.com/sketch -->
    <title>logo</title>
    <desc>Created with Sketch.</desc>
    <defs></defs>
    <g id="Symbols" stroke="none" stroke-width="1" fill="none" fill-rule="evenodd">
        <g id="hd---header---survival" transform="translate(-40.000000, -24.000000)">
            <g id="logo">
                <g transform="translate(40.000000, 24.000000)">
                    <path d="M49.475258,22.6391765 L56.2767313,22.6391765 L56.2767313,25.855377 L45.6,25.855377 L45.6,6.66362299 L49.475258,6.66362299 L49.475258,22.6391765 Z M63.4125537,25.855377 L59.5372957,25.855377 L59.5372957,6.66362299 L63.4125537,6.66362299 L63.4125537,25.855377 Z M73.7645767,20.5829171 L76.9939584,6.66362299 L81.3173755,6.66362299 L75.7812926,25.855377 L71.7478608,25.855377 L66.2513214,6.66362299 L70.5483762,6.66362299 L73.7645767,20.5829171 Z M93.8838317,17.5512527 L87.8468651,17.5512527 L87.8468651,22.6391765 L94.9910482,22.6391765 L94.9910482,25.855377 L83.9716071,25.855377 L83.9716071,6.66362299 L94.9646859,6.66362299 L94.9646859,9.89300468 L87.8468651,9.89300468 L87.8468651,14.4273202 L93.8838317,14.4273202 L93.8838317,17.5512527 Z M110.760524,9.89300468 L106.01531,9.89300468 L106.01531,25.855377 L102.126871,25.855377 L102.126871,9.89300468 L97.4607437,9.89300468 L97.4607437,6.66362299 L110.760524,6.66362299 L110.760524,9.89300468 Z M127.294506,25.855377 L123.432429,25.855377 L123.432429,17.6435207 L117.71181,17.6435207 L117.71181,25.855377 L113.836552,25.855377 L113.836552,6.66362299 L117.71181,6.66362299 L117.71181,14.4273202 L123.432429,14.4273202 L123.432429,6.66362299 L127.294506,6.66362299 L127.294506,25.855377 Z M137.066558,18.8430053 L135.14211,18.8430053 L135.14211,25.855377 L131.266852,25.855377 L131.266852,6.66362299 L137.448812,6.66362299 C139.390844,6.66362299 140.891283,7.16669851 141.950174,8.17286464 C143.009065,9.17903077 143.538503,10.6091712 143.538503,12.4633289 C143.538503,15.0116972 142.611438,16.7955283 140.75728,17.8148757 L144.118473,25.6708409 L144.118473,25.855377 L139.95323,25.855377 L137.066558,18.8430053 Z M135.14211,15.6136237 L137.343363,15.6136237 C138.11666,15.6136237 138.696625,15.3565938 139.083274,14.8425264 C139.469923,14.328459 139.663245,13.6408492 139.663245,12.7796765 C139.663245,10.855219 138.911927,9.89300468 137.409268,9.89300468 L135.14211,9.89300468 L135.14211,15.6136237 Z M160.560188,17.9862306 C160.560188,20.5609614 159.951664,22.5600825 158.734598,23.9836537 C157.517533,25.407225 155.828166,26.119 153.666446,26.119 C151.513514,26.119 149.82195,25.4138155 148.591704,24.0034255 C147.361457,22.5930354 146.737555,20.6180795 146.71998,18.0784987 L146.71998,14.7963924 C146.71998,12.1601493 147.330701,10.1017136 148.55216,8.62102373 C149.77362,7.14033384 151.469577,6.4 153.640084,6.4 C155.775441,6.4 157.458218,7.12715282 158.688464,8.58148028 C159.918711,10.0358077 160.542613,12.0766687 160.560188,14.7041243 L160.560188,17.9862306 Z M156.671748,14.7700301 C156.671748,13.0388971 156.425703,11.751551 155.933604,10.9079532 C155.441505,10.0643554 154.677006,9.64256283 153.640084,9.64256283 C152.611949,9.64256283 151.851844,10.0489776 151.359745,10.8618192 C150.867646,11.6746608 150.612813,12.9114797 150.595238,14.5723128 L150.595238,17.9862306 C150.595238,19.6646387 150.845678,20.9014576 151.346564,21.6967243 C151.84745,22.4919909 152.620737,22.8896183 153.666446,22.8896183 C154.677006,22.8896183 155.428324,22.5007783 155.920423,21.7230866 C156.412522,20.9453948 156.662961,19.7393317 156.671748,18.104861 L156.671748,14.7700301 Z M176.672373,6.66362299 L176.672373,19.9502219 C176.654798,21.9449792 176.105589,23.4717805 175.024729,24.5306715 C173.94387,25.5895624 172.392903,26.119 170.371783,26.119 C168.315514,26.119 166.744776,25.5829719 165.659522,24.5108997 C164.574269,23.4388275 164.03165,21.8878611 164.03165,19.8579539 L164.03165,6.66362299 L167.933271,6.66362299 L167.933271,19.871135 C167.933271,20.9607822 168.109018,21.7384622 168.460517,22.2041985 C168.812016,22.6699348 169.449098,22.9027995 170.371783,22.9027995 C171.294469,22.9027995 171.927157,22.6721317 172.269869,22.2107891 C172.612581,21.7494466 172.788328,20.991538 172.797115,19.9370408 L172.797115,6.66362299 L176.672373,6.66362299 Z M193.509522,23.6804873 C192.762586,24.4889352 191.846505,25.0974589 190.761252,25.5060765 C189.675999,25.9146942 188.48751,26.119 187.195751,26.119 C184.990094,26.119 183.276562,25.4357839 182.055103,24.0693312 C180.833643,22.7028785 180.205348,20.7147417 180.170198,18.104861 L180.170198,14.6513997 C180.170198,12.0063691 180.747966,9.96990186 181.903519,8.54193683 C183.059073,7.1139718 184.744046,6.4 186.95849,6.4 C189.041122,6.4 190.61186,6.9140597 191.670751,7.94219452 C192.729642,8.97032934 193.34256,10.5828072 193.509522,12.7796765 L189.739713,12.7796765 C189.634263,11.5582172 189.37943,10.7256162 188.975206,10.2818486 C188.570982,9.838081 187.938293,9.61620053 187.077121,9.61620053 C186.031411,9.61620053 185.271305,9.99845005 184.796782,10.7629606 C184.322258,11.5274711 184.076212,12.7445184 184.058637,14.414139 L184.058637,17.8939626 C184.058637,19.6426705 184.320061,20.9146387 184.842916,21.7099054 C185.365771,22.5051721 186.224734,22.9027995 187.419831,22.9027995 C188.184341,22.9027995 188.803849,22.7490209 189.278373,22.4414592 L189.621083,22.2041985 L189.621083,18.6848316 L186.905766,18.6848316 L186.905766,15.7586163 L193.509522,15.7586163 L193.509522,23.6804873 Z M210.557569,25.855377 L206.695492,25.855377 L206.695492,17.6435207 L200.974873,17.6435207 L200.974873,25.855377 L197.099615,25.855377 L197.099615,6.66362299 L200.974873,6.66362299 L200.974873,14.4273202 L206.695492,14.4273202 L206.695492,6.66362299 L210.557569,6.66362299 L210.557569,25.855377 Z" id="LiveThrough" fill="#FDFCFB"></path>
                    <path d="M18.167147,11.5273775 C18.167147,11.3236529 18.3322984,11.1585014 18.5360231,11.1585014 L26.7436837,11.1585014 C27.0908864,11.1585014 27.2372828,10.7272251 26.9852617,10.5111516 C25.1190486,8.91113035 23.5014829,8.1125044 22.1325648,8.11527378 L15.7233406,8.1152672 C15.3922874,8.1152666 15.1239163,8.3836377 15.1239163,8.71469023 C15.1239165,18.8589528 15.1239167,26.4671497 15.1239168,31.539281 C15.1239168,31.8268457 14.8257283,31.9719735 14.6153652,31.8807848 C4.80470164,27.6280331 6.56342048e-16,17.3863106 0,6.04458264 C0,5.34412791 0.340525467,4.61095728 0.94781444,4.13175062 C5.66523935,0.40927003 8.64774633,0 15.1239193,0 C21.5571768,0 24.5205509,0.457915022 29.2194918,4.14095041 C29.7400698,4.54898009 30.1556196,5.26490854 30.1556196,6.04495565 C30.1556196,16.1272134 26.7887451,25.4489407 18.7298599,30.2842902 C18.4685752,30.4410616 18.167147,30.2451667 18.167147,29.9716019 C18.167147,25.8728853 18.167147,19.7248106 18.167147,11.5273775 Z" id="helmet" fill="#EB2D35"></path>
                </g>
            </g>
        </g>
    </g>
</svg>