<svg width="60" height="64" viewBox="0 0 60 64" fill="none" xmlns="http://www.w3.org/2000/svg">
<path fill-rule="evenodd" clip-rule="evenodd" d="M36.1468 23.1213C36.1468 22.7127 36.4754 22.3814 36.8807 22.3814H53.2113C53.9022 22.3814 54.1935 21.5164 53.692 21.083C49.9788 17.8737 46.7604 16.2718 44.0367 16.2774L31.2844 16.2774C30.6257 16.2774 30.0917 16.8157 30.0917 17.4797C30.0917 17.4797 30.0917 48.0003 30.0917 63.2607C30.0917 63.8374 29.4984 64.1285 29.0799 63.9456C9.55981 55.4156 0 34.873 0 12.1241C0 10.7191 0.677536 9.24854 1.88585 8.28736C11.272 0.820903 17.2062 0 30.0917 0C42.8919 0 48.788 0.918473 58.1374 8.30581C59.1732 9.12422 60 10.5602 60 12.1248C60 32.3475 53.301 51.0448 37.2664 60.7434C36.7465 61.0579 36.1468 60.665 36.1468 60.1162C36.1468 47.7846 36.1468 23.1213 36.1468 23.1213Z" fill="#EB2D35"/>
</svg>
